# xmcd
#
# Track frame offsets:
#  150
#  11457
#  23309
#  34229
#  46063
#  56146
#  66665
#  77292
#  88704
#  99085
#  111606
#  122050
#  132713
#  143140
#  154351
#  165885
#  178021
#  190565
#  202075
#  214753
#
# Disc length: 3044 seconds
#
# Revision: 0
# Processed by: cddbd v1.5.1PL2 Copyright (c) Steve Scherf et al.
# Submitted via: Collectorz.com_Music_Collector 6.11
#
DISCID=100be214
DTITLE=Robert Johnson - Bd Blues 05 [Longbox] [CD2)
DYEAR=2005
DGENRE=Blues
TTITLE0=Stones in my passway
TTITLE1=I'm a steady rollin' man
TTITLE2=From four till late
TTITLE3=Hellhound on my trail
TTITLE4=Little queen of spades
TTITLE5=Malted milk
TTITLE6=Drunken hearted man
TTITLE7=Me and the devil blues
TTITLE8=Stop breakin' down blues
TTITLE9=Travelling riverside blues
TTITLE10=Honeymoon blues
TTITLE11=Love in vain
TTITLE12=Milkcow's calf blues
TTITLE13=Dust my broom
TTITLE14=Ramblin'
TTITLE15=Kind hearted woman
TTITLE16=Dust my broom
TTITLE17=Mr. Down child
TTITLE18=Ramblin' on my mind
TTITLE19=Sweet home Chicago
EXTD=
EXTT0=
EXTT1=
EXTT2=
EXTT3=
EXTT4=
EXTT5=
EXTT6=
EXTT7=
EXTT8=
EXTT9=
EXTT10=
EXTT11=
EXTT12=
EXTT13=
EXTT14=
EXTT15=
EXTT16=
EXTT17=
EXTT18=
EXTT19=
PLAYORDER=
